<svg width="55" height="60" viewBox="0 0 20 30"
    xmlns="http://www.w3.org/2000/svg">
    <path fill-rule="evenodd" clip-rule="evenodd" d="M 21 17.5 v -4.2 h -2 v 4.2 h -2.1 v 2.1 h -4.9 v -2.1 h 4.9 v -2.1 h -10.5 v 2.1 l 4.2 0 v 2.1 h -4.2 v -2.1 h -2.1 v -4.2 h -2 v 4.2 h -2.1 v -6.3 h 2.1 v -2 h 2.1 v -2.1 h 2.1 v -2.1 h 2.1 v 2.1 l 6.3 0 v -2.1 h 2.1 v 2.1 h 2.1 v 2.1 h 2.1 v 2.1 h 2.1 v 6.3 h -2.1 z M 8.4 9.1 h -2.1 v 2.1 h 2.1 v -2.1 z M 16.8 9.1 h -2.1 v 2.1 h 2.1 v -2.1 z M 4.2 2.8 h 2.1 v 2.1 h -2.1 v -2.1 z M 18.9 2.8 v 2.1 h -2.1 v -2.1 h 2.1 z"></path>
</svg>